<svg xmlns="http://www.w3.org/2000/svg" width="1024" height="1024" viewBox="0 0 1024 1024">
    <rect width="100%" height="100%" rx="200" ry="200" fill="white"/>
    <g transform="translate(287,162)">
        <g transform="translate(0,50)" stroke="black" stroke-width="30" stroke-linecap="round" stroke-linejoin="round">
            <polygon points="0,0 150,0 150,150 0,150" fill="none"/>
            <polygon points="0,0 50,-50 200,-50 150,0" fill="none"/>
            <polygon points="150,0 200,-50 200,100 150,150" fill="none"/>
        </g>
        <g transform="translate(250,50)" stroke="black" stroke-width="30" stroke-linecap="round" stroke-linejoin="round">
            <polygon points="0,0 150,0 150,150 0,150" fill="black"/>
            <polygon points="0,0 50,-50 200,-50 150,0" fill="black"/>
            <polygon points="150,0 200,-50 200,100 150,150" fill="black"/>
        </g>
        <g transform="translate(0,300)" stroke="black" stroke-width="30" stroke-linecap="round" stroke-linejoin="round">
            <polygon points="0,0 150,0 150,150 0,150" fill="black"/>
            <polygon points="0,0 50,-50 200,-50 150,0" fill="black"/>
            <polygon points="150,0 200,-50 200,100 150,150" fill="black"/>
        </g>
        <g transform="translate(250,300)" stroke="black" stroke-width="30" stroke-linecap="round"
           stroke-linejoin="round">
            <polygon points="0,0 150,0 150,150 0,150" fill="none"/>
            <polygon points="0,0 50,-50 200,-50 150,0" fill="none"/>
            <polygon points="150,0 200,-50 200,100 150,150" fill="none"/>
        </g>
        <g transform="translate(0,550)" stroke="black" stroke-width="30" stroke-linecap="round" stroke-linejoin="round">
            <polygon points="0,0 150,0 150,150 0,150" fill="none"/>
            <polygon points="0,0 50,-50 200,-50 150,0" fill="none"/>
            <polygon points="150,0 200,-50 200,100 150,150" fill="none"/>
        </g>
        <g transform="translate(250,550)" stroke="black" stroke-width="30" stroke-linecap="round"
           stroke-linejoin="round">
            <polygon points="0,0 150,0 150,150 0,150" fill="black"/>
            <polygon points="0,0 50,-50 200,-50 150,0" fill="black"/>
            <polygon points="150,0 200,-50 200,100 150,150" fill="black"/>
        </g>
    </g>
</svg>